<?xml version="1.0" encoding="utf-8"?>
<!-- Generator: Adobe Illustrator 16.0.0, SVG Export Plug-In . SVG Version: 6.00 Build 0)  -->
<!DOCTYPE svg PUBLIC "-//W3C//DTD SVG 1.1//EN" "http://www.w3.org/Graphics/SVG/1.1/DTD/svg11.dtd">
<svg version="1.1" id="Capa_1" xmlns="http://www.w3.org/2000/svg" xmlns:xlink="http://www.w3.org/1999/xlink" x="0px" y="0px"
	 width="1190.55px" height="1000px" viewBox="0 0 1190.55 841.89" enable-background="new 0 0 1190.55 841.89"
	 xml:space="preserve">
<g>
	<path fill="#333439" d="M889.047,103.541c-82.351,70.436-151.064,189.331-175.536,312.341
		c-29.521-25.63-68.153-42.309-110.337-42.309c-72.227,0-133.834,44.991-157.646,108.929c-0.084-0.013-0.183-0.019-0.268-0.032
		c-4.501,12.224-7.638,25.135-9.189,38.495c-0.366-0.007-0.748,0.028-1.152,0.028c-50.855,0-93.401,34.775-105.139,82.005
		c-21.12,2.179-38.637,16.552-46.049,35.119c-10.302-4.478-21.668-6.979-33.622-6.979c-41.299,0-75.782,29.675-83.086,68.862
		C142.674,702.497,124,723.606,124,748.658v16.428c0,0.712-0.034,1.426-0.034,2.141c0,0.669,0.034,1.322,0.034,1.982v1.009
		l-0.188,1.526c0,38.027-31.17,70.256-69.192,70.256H1191V1.049C1191,1.049,1030.82-17.726,889.047,103.541z"/>
</g>
</svg>
